<svg xmlns="http://www.w3.org/2000/svg" xmlns:xlink="http://www.w3.org/1999/xlink" width="512" height="512" viewBox="0 0 512 512"><defs><clipPath id="b"><rect width="512" height="512"/></clipPath></defs><g id="a" clip-path="url(#b)"><rect width="512" height="512" fill="#fff"/><path d="M0,128C0,0,0,0,128,0S256,0,256,128s0,128-128,128S0,256,0,128"/><path d="M0,128C0,0,0,0,128,0S256,0,256,128s0,128-128,128S0,256,0,128" transform="translate(256 256)"/><path d="M0,64C0,0,0,0,64,0s64,0,64,64,0,64-64,64S0,128,0,64" transform="translate(256)"/><path d="M0,64C0,0,0,0,64,0s64,0,64,64,0,64-64,64S0,128,0,64" transform="translate(256 128)"/><path d="M0,64C0,0,0,0,64,0s64,0,64,64,0,64-64,64S0,128,0,64" transform="translate(384 128)"/><path d="M0,64C0,0,0,0,64,0s64,0,64,64,0,64-64,64S0,128,0,64" transform="translate(384)"/><path d="M0,64C0,0,0,0,64,0s64,0,64,64,0,64-64,64S0,128,0,64" transform="translate(0 256)"/><path d="M0,64C0,0,0,0,64,0s64,0,64,64,0,64-64,64S0,128,0,64" transform="translate(0 384)"/><path d="M0,64C0,0,0,0,64,0s64,0,64,64,0,64-64,64S0,128,0,64" transform="translate(128 384)"/><path d="M0,64C0,0,0,0,64,0s64,0,64,64,0,64-64,64S0,128,0,64" transform="translate(128 256)"/></g></svg>